.
 
http://www.scenetime.com    -   SceneTime [ We been having it ] !!!


How come you press harder on a remote control when you know the battery is dead? so you better seed to get speed ;)

        Seed back for speed


...................................NFO:.................................................








































          
          
              
              
                    
                    
                    
                    

Source.Code.2011.DVDRip.XviD.AC3-SiC

Poster:
[img]http://leetleech.org/images/48401503433491551118.jpg[/img]

IMDB Link:
http://www.imdb.com/title/tt0945513/

Description:
An action thriller centered on a soldier who wakes up in the 
body of an unknown man and discovers he's part of a mission to 
find the bomber of a Chicago commuter train.

MediaInfo:
General
Complete name                    : Source.Code.2011.DVDRip.XviD.AC3-SiC.avi
Format                           : AVI
Format/Info                      : Audio Video Interleave
File size                        : 1.46 GiB
Duration                         : 1h 33mn
Overall bit rate                 : 2 237 Kbps

Video
ID                               : 0
Format                           : MPEG-4 Visual
Format profile                   : Advanced Simple@L5
Format settings, BVOP            : 1
Format settings, QPel            : No
Format settings, GMC             : No warppoints
Format settings, Matrix          : Default (H.263)
Codec ID                         : XVID
Codec ID/Hint                    : XviD
Duration                         : 1h 33mn
Bit rate                         : 1 781 Kbps
Width                            : 720 pixels
Height                           : 400 pixels
Display aspect ratio             : 16:9
Frame rate                       : 23.976 fps
Color space                      : YUV
Chroma subsampling               : 4:2:0
Bit depth                        : 8 bits
Scan type                        : Progressive
Compression mode                 : Lossy
Bits/(Pixel*Frame)               : 0.258
Stream size                      : 1.16 GiB (80%)
Writing library                  : XviD 1.2.1 (UTC 2008-12-04)

Audio
ID                               : 1
Format                           : AC-3
Format/Info                      : Audio Coding 3
Mode extension                   : CM (complete main)
Codec ID                         : 2000
Duration                         : 1h 33mn
Bit rate mode                    : Constant
Bit rate                         : 448 Kbps
Channel(s)                       : 6 channels
Channel positions                : Front: L C R, Side: L R, LFE
Sampling rate                    : 48.0 KHz
Bit depth                        : 16 bits
Compression mode                 : Lossy
Stream size                      : 299 MiB (20%)
Alignment                        : Aligned on interleaves
Interleave, duration             : 64 ms (1.53 video frames)
Interleave, preload duration     : 1024 ms
Title                            : VTS_01_1 T80 3_2ch 448Kbps DELAY 0ms

Screenshots:
[img]http://leetleech.org/images/39491729085554842632.png[/img]
[img]http://leetleech.org/images/53431108470057793943.png[/img]
[img]http://leetleech.org/images/97528693817021431395.png[/img]
[img]http://leetleech.org/images/15869647845418186863.png[/img]
[img]http://leetleech.org/images/96170050765883476823.png[/img]

Note: N/A

Encoder: TheSL

Enjoy!

Respects to CaptainHomey, Cyanide, CM8, Rx, THC, ELEKTRI4KA, 
Killerhz, PA, YeFsTe, BoxSlots, and everyone in the struggle...